<?xml version="1.0" encoding="UTF-8" standalone="no"?>
<svg
   xmlns:dc="http://purl.org/dc/elements/1.1/"
   xmlns:cc="http://creativecommons.org/ns#"
   xmlns:rdf="http://www.w3.org/1999/02/22-rdf-syntax-ns#"
   xmlns:svg="http://www.w3.org/2000/svg"
   xmlns="http://www.w3.org/2000/svg"
   xmlns:sodipodi="http://sodipodi.sourceforge.net/DTD/sodipodi-0.dtd"
   xmlns:inkscape="http://www.inkscape.org/namespaces/inkscape"
   height="194.32001mm"
   viewBox="0 0 289.21999 194.32001"
   width="289.22mm"
   version="1.1"
   id="svg29"
   sodipodi:docname="laatikkoadsads.svg"
   inkscape:version="1.0.2-2 (e86c870879, 2021-01-15)">
  <defs
     id="defs33" />
  <sodipodi:namedview
     pagecolor="#ffffff"
     bordercolor="#666666"
     borderopacity="1"
     objecttolerance="19.9"
     gridtolerance="10000"
     guidetolerance="10000"
     inkscape:pageopacity="0"
     inkscape:pageshadow="2"
     inkscape:window-width="3440"
     inkscape:window-height="1377"
     id="namedview31"
     showgrid="true"
     inkscape:zoom="2"
     inkscape:cx="624.15169"
     inkscape:cy="571.63907"
     inkscape:window-x="-8"
     inkscape:window-y="-8"
     inkscape:window-maximized="1"
     inkscape:current-layer="svg29"
     fit-margin-top="0"
     fit-margin-left="0"
     fit-margin-right="0"
     fit-margin-bottom="0"
     inkscape:document-rotation="0"
     inkscape:snap-grids="true">
    <inkscape:grid
       type="xygrid"
       id="grid848"
       dotted="false"
       units="mm"
       spacingx="0.099999999"
       spacingy="0.099999999"
       enabled="true"
       visible="true" />
  </sodipodi:namedview>
  <!--
ClosedBox - Fully closed box


This box is more of a building block than a finished item.
Use a vector graphics program (like Inkscape) to add holes or adjust the base
plate.

See BasedBox for variant with a base.


Created with Boxes.py (https://festi.info/boxes.py)
Creation date: 2021-04-27 12:02:36
Command line (remove spaces between dashes): boxes ClosedBox - -FingerJoint_angle=90.0 - -FingerJoint_style=rectangular - -FingerJoint_surroundingspaces=2.0 - -FingerJoint_edge_width=1.0 - -FingerJoint_finger=2.0 - -FingerJoint_play=0.0 - -FingerJoint_space=2.0 - -FingerJoint_width=1.0 - -x=140 - -y=80 - -h=50 - -outside=0 - -thickness=2.0 - -format=svg - -tabs=0.0 - -debug=0 - -reference=100 - -burn=0.05
Url: http://www.festi.info/ClosedBox?FingerJoint_angle=90.0&FingerJoint_style=rectangular&FingerJoint_surroundingspaces=2.0&FingerJoint_edge_width=1.0&FingerJoint_finger=2.0&FingerJoint_play=0.0&FingerJoint_space=2.0&FingerJoint_width=1.0&x=140&y=80&h=50&outside=0&thickness=2.0&format=svg&tabs=0.0&debug=0&reference=100&burn=0.05&render=1
SettingsUrl: http://www.festi.info/ClosedBox?FingerJoint_angle=90.0&FingerJoint_style=rectangular&FingerJoint_surroundingspaces=2.0&FingerJoint_edge_width=1.0&FingerJoint_finger=2.0&FingerJoint_play=0.0&FingerJoint_space=2.0&FingerJoint_width=1.0&x=140&y=80&h=50&outside=0&thickness=2.0&format=svg&tabs=0.0&debug=0&reference=100&burn=0.05
-->
  <title
     id="title2">ClosedBox</title>
  <metadata
     id="metadata4">
    <rdf:RDF>
      <cc:Work>
        <dc:title>Box - ClosedBox</dc:title>
        <dc:date>2021-04-27 12:02:36</dc:date>
        <dc:source>http://www.festi.info/ClosedBox?FingerJoint_angle=90.0&amp;FingerJoint_style=rectangular&amp;FingerJoint_surroundingspaces=2.0&amp;FingerJoint_edge_width=1.0&amp;FingerJoint_finger=2.0&amp;FingerJoint_play=0.0&amp;FingerJoint_space=2.0&amp;FingerJoint_width=1.0&amp;x=140&amp;y=80&amp;h=50&amp;outside=0&amp;thickness=2.0&amp;format=svg&amp;tabs=0.0&amp;debug=0&amp;reference=100&amp;burn=0.05&amp;render=1</dc:source>
        <dc:description>Fully closed box

This box is more of a building block than a finished item.
Use a vector graphics program (like Inkscape) to add holes or adjust the base
plate.

See BasedBox for variant with a base.

Created with Boxes.py (https://festi.info/boxes.py)
Command line: boxes ClosedBox --FingerJoint_angle=90.0 --FingerJoint_style=rectangular --FingerJoint_surroundingspaces=2.0 --FingerJoint_edge_width=1.0 --FingerJoint_finger=2.0 --FingerJoint_play=0.0 --FingerJoint_space=2.0 --FingerJoint_width=1.0 --x=140 --y=80 --h=50 --outside=0 --thickness=2.0 --format=svg --tabs=0.0 --debug=0 --reference=100 --burn=0.05
Url: http://www.festi.info/ClosedBox?FingerJoint_angle=90.0&amp;FingerJoint_style=rectangular&amp;FingerJoint_surroundingspaces=2.0&amp;FingerJoint_edge_width=1.0&amp;FingerJoint_finger=2.0&amp;FingerJoint_play=0.0&amp;FingerJoint_space=2.0&amp;FingerJoint_width=1.0&amp;x=140&amp;y=80&amp;h=50&amp;outside=0&amp;thickness=2.0&amp;format=svg&amp;tabs=0.0&amp;debug=0&amp;reference=100&amp;burn=0.05&amp;render=1
SettingsUrl: http://www.festi.info/ClosedBox?FingerJoint_angle=90.0&amp;FingerJoint_style=rectangular&amp;FingerJoint_surroundingspaces=2.0&amp;FingerJoint_edge_width=1.0&amp;FingerJoint_finger=2.0&amp;FingerJoint_play=0.0&amp;FingerJoint_space=2.0&amp;FingerJoint_width=1.0&amp;x=140&amp;y=80&amp;h=50&amp;outside=0&amp;thickness=2.0&amp;format=svg&amp;tabs=0.0&amp;debug=0&amp;reference=100&amp;burn=0.05
</dc:description>
        <dc:format>image/svg+xml</dc:format>
        <dc:type
           rdf:resource="http://purl.org/dc/dcmitype/StillImage" />
      </cc:Work>
    </rdf:RDF>
  </metadata>
  <g
     id="p-1"
     style="fill:none;stroke-width:0.02;stroke-linecap:round;stroke-linejoin:round;stroke-miterlimit:4;stroke-dasharray:none"
     transform="translate(-9.99,-9.99)">
    <path
       d="m 12.05,204.3 h 4 c 0.028,0 0.05,-0.022 0.05,-0.05 v -1.95 c 0,-0.05 -0.05,0 0,0 H 20 c 0.05,0 0,-0.05 0,0 v 1.95 c 0,0.028 0.022,0.05 0.05,0.05 h 4 c 0.028,0 0.05,-0.022 0.05,-0.05 v -1.95 c 0,-0.05 -0.05,0 0,0 H 28 c 0.05,0 0,-0.05 0,0 v 1.95 c 0,0.028 0.022,0.05 0.05,0.05 h 4 c 0.028,0 0.05,-0.022 0.05,-0.05 v -1.95 c 0,-0.05 -0.05,0 0,0 H 36 c 0.05,0 0,-0.05 0,0 v 1.95 c 0,0.028 0.022,0.05 0.05,0.05 h 4 c 0.028,0 0.05,-0.022 0.05,-0.05 v -1.95 c 0,-0.05 -0.05,0 0,0 H 44 c 0.05,0 0,-0.05 0,0 v 1.95 c 0,0.028 0.022,0.05 0.05,0.05 h 4 c 0.028,0 0.05,-0.022 0.05,-0.05 v -1.95 c 0,-0.05 -0.05,0 0,0 H 52 c 0.05,0 0,-0.05 0,0 v 1.95 c 0,0.028 0.022,0.05 0.05,0.05 h 4 c 0.028,0 0.05,-0.022 0.05,-0.05 v -1.95 c 0,-0.05 -0.05,0 0,0 H 60 c 0.05,0 0,-0.05 0,0 v 1.95 c 0,0.028 0.022,0.05 0.05,0.05 h 4 c 0.028,0 0.05,-0.022 0.05,-0.05 v -1.95 c 0,-0.05 -0.05,0 0,0 H 68 c 0.05,0 0,-0.05 0,0 v 1.95 c 0,0.028 0.022,0.05 0.05,0.05 h 4 c 0.028,0 0.05,-0.022 0.05,-0.05 v -1.95 c 0,-0.05 -0.05,0 0,0 H 76 c 0.05,0 0,-0.05 0,0 v 1.95 c 0,0.028 0.022,0.05 0.05,0.05 h 4 c 0.028,0 0.05,-0.022 0.05,-0.05 v -1.95 c 0,-0.05 -0.05,0 0,0 H 84 c 0.05,0 0,-0.05 0,0 v 1.95 c 0,0.028 0.022,0.05 0.05,0.05 h 4 c 0.028,0 0.05,-0.022 0.05,-0.05 v -1.95 c 0,-0.05 -0.05,0 0,0 H 92 c 0.05,0 0,-0.05 0,0 v 1.95 c 0,0.028 0.022,0.05 0.05,0.05 h 4 c 0.028,0 0.05,-0.022 0.05,-0.05 v -1.95 c 0,-0.05 -0.05,0 0,0 h 3.9 c 0.05,0 0,-0.05 0,0 v 1.95 c 0,0.028 0.022,0.05 0.05,0.05 h 4 c 0.028,0 0.05,-0.022 0.05,-0.05 v -1.95 c 0,-0.05 -0.05,0 0,0 h 3.9 c 0.05,0 0,-0.05 0,0 v 1.95 c 0,0.028 0.022,0.05 0.05,0.05 h 4 c 0.028,0 0.05,-0.022 0.05,-0.05 v -1.95 c 0,-0.05 -0.05,0 0,0 h 3.9 c 0.05,0 0,-0.05 0,0 v 1.95 c 0,0.028 0.022,0.05 0.05,0.05 h 4 c 0.028,0 0.05,-0.022 0.05,-0.05 v -1.95 c 0,-0.05 -0.05,0 0,0 h 3.9 c 0.05,0 0,-0.05 0,0 v 1.95 c 0,0.028 0.022,0.05 0.05,0.05 h 4 c 0.028,0 0.05,-0.022 0.05,-0.05 v -1.95 c 0,-0.05 -0.05,0 0,0 h 3.9 c 0.05,0 0,-0.05 0,0 v 1.95 c 0,0.028 0.022,0.05 0.05,0.05 h 4 c 0.028,0 0.05,-0.022 0.05,-0.05 v -1.95 c 0,-0.05 -0.05,0 0,0 h 3.9 c 0.05,0 0,-0.05 0,0 v 1.95 c 0,0.028 0.022,0.05 0.05,0.05 h 4 c 0.028,0 0.05,-0.022 0.05,-0.05 v -1.95 c 0,-0.05 -0.05,0 0,0 h 3.9 c 0.05,0 0,-0.05 0,0 v 1.95 c 0,0.028 0.022,0.05 0.05,0.05 h 4 2 c 0.028,0 0.05,-0.022 0.05,-0.05 v -2 -7 c 0,-0.028 -0.022,-0.05 -0.05,-0.05 h -1.95 c -0.05,0 0,0.05 0,0 v -3.9 c 0,-0.05 -0.05,0 0,0 h 1.95 c 0.028,0 0.05,-0.022 0.05,-0.05 v -4 c 0,-0.028 -0.022,-0.05 -0.05,-0.05 h -1.95 c -0.05,0 0,0.05 0,0 v -3.9 c 0,-0.05 -0.05,0 0,0 h 1.95 c 0.028,0 0.05,-0.022 0.05,-0.05 v -4 c 0,-0.028 -0.022,-0.05 -0.05,-0.05 h -1.95 c -0.05,0 0,0.05 0,0 v -3.9 c 0,-0.05 -0.05,0 0,0 h 1.95 c 0.028,0 0.05,-0.022 0.05,-0.05 v -4 c 0,-0.028 -0.022,-0.05 -0.05,-0.05 h -1.95 c -0.05,0 0,0.05 0,0 v -3.9 c 0,-0.05 -0.05,0 0,0 h 1.95 c 0.028,0 0.05,-0.022 0.05,-0.05 v -4 c 0,-0.028 -0.022,-0.05 -0.05,-0.05 h -1.95 c -0.05,0 0,0.05 0,0 v -3.9 c 0,-0.05 -0.05,0 0,0 h 1.95 c 0.028,0 0.05,-0.022 0.05,-0.05 v -7 -2 c 0,-0.028 -0.022,-0.05 -0.05,-0.05 h -2 -4 c -0.028,0 -0.05,0.022 -0.05,0.05 v 1.95 c 0,0.05 0.05,0 0,0 h -3.9 c -0.05,0 0,0.05 0,0 v -1.95 c 0,-0.028 -0.022,-0.05 -0.05,-0.05 h -4 c -0.028,0 -0.05,0.022 -0.05,0.05 v 1.95 c 0,0.05 0.05,0 0,0 h -3.9 c -0.05,0 0,0.05 0,0 v -1.95 c 0,-0.028 -0.022,-0.05 -0.05,-0.05 h -4 c -0.028,0 -0.05,0.022 -0.05,0.05 v 1.95 c 0,0.05 0.05,0 0,0 h -3.9 c -0.05,0 0,0.05 0,0 v -1.95 c 0,-0.028 -0.022,-0.05 -0.05,-0.05 h -4 c -0.028,0 -0.05,0.022 -0.05,0.05 v 1.95 c 0,0.05 0.05,0 0,0 h -3.9 c -0.05,0 0,0.05 0,0 v -1.95 c 0,-0.028 -0.022,-0.05 -0.05,-0.05 h -4 c -0.028,0 -0.05,0.022 -0.05,0.05 v 1.95 c 0,0.05 0.05,0 0,0 h -3.9 c -0.05,0 0,0.05 0,0 v -1.95 c 0,-0.028 -0.022,-0.05 -0.05,-0.05 h -4 c -0.028,0 -0.05,0.022 -0.05,0.05 v 1.95 c 0,0.05 0.05,0 0,0 h -3.9 c -0.05,0 0,0.05 0,0 v -1.95 c 0,-0.028 -0.022,-0.05 -0.05,-0.05 h -4 c -0.028,0 -0.05,0.022 -0.05,0.05 v 1.95 c 0,0.05 0.05,0 0,0 h -3.9 c -0.05,0 0,0.05 0,0 v -1.95 c 0,-0.028 -0.022,-0.05 -0.05,-0.05 h -4 c -0.028,0 -0.05,0.022 -0.05,0.05 v 1.95 c 0,0.05 0.05,0 0,0 h -3.9 c -0.05,0 0,0.05 0,0 v -1.95 c 0,-0.028 -0.022,-0.05 -0.05,-0.05 h -4 c -0.028,0 -0.05,0.022 -0.05,0.05 v 1.95 c 0,0.05 0.05,0 0,0 h -3.9 c -0.05,0 0,0.05 0,0 v -1.95 c 0,-0.028 -0.022,-0.05 -0.05,-0.05 h -4 c -0.028,0 -0.05,0.022 -0.05,0.05 v 1.95 c 0,0.05 0.05,0 0,0 h -3.9 c -0.05,0 0,0.05 0,0 v -1.95 c 0,-0.028 -0.022,-0.05 -0.05,-0.05 h -4 c -0.028,0 -0.05,0.022 -0.05,0.05 v 1.95 c 0,0.05 0.05,0 0,0 h -3.9 c -0.05,0 0,0.05 0,0 v -1.95 c 0,-0.028 -0.022,-0.05 -0.05,-0.05 h -4 c -0.028,0 -0.05,0.022 -0.05,0.05 v 1.95 c 0,0.05 0.05,0 0,0 h -3.9 c -0.05,0 0,0.05 0,0 v -1.95 c 0,-0.028 -0.022,-0.05 -0.05,-0.05 h -4 c -0.028,0 -0.05,0.022 -0.05,0.05 v 1.95 c 0,0.05 0.05,0 0,0 h -3.9 c -0.05,0 0,0.05 0,0 v -1.95 c 0,-0.028 -0.022,-0.05 -0.05,-0.05 h -4 c -0.028,0 -0.05,0.022 -0.05,0.05 v 1.95 c 0,0.05 0.05,0 0,0 h -3.9 c -0.05,0 0,0.05 0,0 v -1.95 c 0,-0.028 -0.022,-0.05 -0.05,-0.05 h -4 c -0.028,0 -0.05,0.022 -0.05,0.05 v 1.95 c 0,0.05 0.05,0 0,0 h -3.9 c -0.05,0 0,0.05 0,0 v -1.95 c 0,-0.028 -0.022,-0.05 -0.05,-0.05 h -4 c -0.028,0 -0.05,0.022 -0.05,0.05 v 1.95 c 0,0.05 0.05,0 0,0 h -3.9 c -0.05,0 0,0.05 0,0 v -1.95 c 0,-0.028 -0.022,-0.05 -0.05,-0.05 h -4 c -0.028,0 -0.05,0.022 -0.05,0.05 v 1.95 c 0,0.05 0.05,0 0,0 h -3.9 c -0.05,0 0,0.05 0,0 v -1.95 c 0,-0.028 -0.022,-0.05 -0.05,-0.05 h -4 -2 c -0.028,0 -0.05,0.022 -0.05,0.05 v 2 7 c 0,0.028 0.022,0.05 0.05,0.05 H 12 c 0.05,0 0,-0.05 0,0 v 3.9 c 0,0.05 0.05,0 0,0 h -1.95 c -0.028,0 -0.05,0.022 -0.05,0.05 v 4 c 0,0.028 0.022,0.05 0.05,0.05 H 12 c 0.05,0 0,-0.05 0,0 v 3.9 c 0,0.05 0.05,0 0,0 h -1.95 c -0.028,0 -0.05,0.022 -0.05,0.05 v 4 c 0,0.028 0.022,0.05 0.05,0.05 H 12 c 0.05,0 0,-0.05 0,0 v 3.9 c 0,0.05 0.05,0 0,0 h -1.95 c -0.028,0 -0.05,0.022 -0.05,0.05 v 4 c 0,0.028 0.022,0.05 0.05,0.05 H 12 c 0.05,0 0,-0.05 0,0 v 3.9 c 0,0.05 0.05,0 0,0 h -1.95 c -0.028,0 -0.05,0.022 -0.05,0.05 v 4 c 0,0.028 0.022,0.05 0.05,0.05 H 12 c 0.05,0 0,-0.05 0,0 v 3.9 c 0,0.05 0.05,0 0,0 h -1.95 c -0.028,0 -0.05,0.022 -0.05,0.05 v 7 2 c 0,0.028 0.022,0.05 0.05,0.05 z"
       stroke="#000000"
       stroke-width="0.10"
       id="path11"
       style="stroke-width:0.02;stroke-miterlimit:4;stroke-dasharray:none" />
  </g>
  <g
     id="p-2"
     style="fill:none;stroke-width:0.02;stroke-linecap:round;stroke-linejoin:round;stroke-miterlimit:4;stroke-dasharray:none"
     transform="translate(-9.99,-9.99)">
    <path
       d="m 157.15,204.3 h 6 c 0.028,0 0.05,-0.022 0.05,-0.05 v -1.95 c 0,-0.05 -0.05,0 0,0 h 3.9 c 0.05,0 0,-0.05 0,0 v 1.95 c 0,0.028 0.022,0.05 0.05,0.05 h 4 c 0.028,0 0.05,-0.022 0.05,-0.05 v -1.95 c 0,-0.05 -0.05,0 0,0 h 3.9 c 0.05,0 0,-0.05 0,0 v 1.95 c 0,0.028 0.022,0.05 0.05,0.05 h 4 c 0.028,0 0.05,-0.022 0.05,-0.05 v -1.95 c 0,-0.05 -0.05,0 0,0 h 3.9 c 0.05,0 0,-0.05 0,0 v 1.95 c 0,0.028 0.022,0.05 0.05,0.05 h 4 c 0.028,0 0.05,-0.022 0.05,-0.05 v -1.95 c 0,-0.05 -0.05,0 0,0 h 3.9 c 0.05,0 0,-0.05 0,0 v 1.95 c 0,0.028 0.022,0.05 0.05,0.05 h 4 c 0.028,0 0.05,-0.022 0.05,-0.05 v -1.95 c 0,-0.05 -0.05,0 0,0 h 3.9 c 0.05,0 0,-0.05 0,0 v 1.95 c 0,0.028 0.022,0.05 0.05,0.05 h 4 c 0.028,0 0.05,-0.022 0.05,-0.05 v -1.95 c 0,-0.05 -0.05,0 0,0 h 3.9 c 0.05,0 0,-0.05 0,0 v 1.95 c 0,0.028 0.022,0.05 0.05,0.05 h 4 c 0.028,0 0.05,-0.022 0.05,-0.05 v -1.95 c 0,-0.05 -0.05,0 0,0 h 3.9 c 0.05,0 0,-0.05 0,0 v 1.95 c 0,0.028 0.022,0.05 0.05,0.05 h 4 c 0.028,0 0.05,-0.022 0.05,-0.05 v -1.95 c 0,-0.05 -0.05,0 0,0 h 3.9 c 0.05,0 0,-0.05 0,0 v 1.95 c 0,0.028 0.022,0.05 0.05,0.05 h 4 c 0.028,0 0.05,-0.022 0.05,-0.05 v -1.95 c 0,-0.05 -0.05,0 0,0 h 3.9 c 0.05,0 0,-0.05 0,0 v 1.95 c 0,0.028 0.022,0.05 0.05,0.05 h 6 c 0.028,0 0.05,-0.022 0.05,-0.05 v -2 -6.95 c 0,-0.05 -0.05,0 0,0 h 1.95 c 0.028,0 0.05,-0.022 0.05,-0.05 v -4 c 0,-0.028 -0.022,-0.05 -0.05,-0.05 h -1.95 c -0.05,0 0,0.05 0,0 v -3.9 c 0,-0.05 -0.05,0 0,0 h 1.95 c 0.028,0 0.05,-0.022 0.05,-0.05 v -4 c 0,-0.028 -0.022,-0.05 -0.05,-0.05 h -1.95 c -0.05,0 0,0.05 0,0 v -3.9 c 0,-0.05 -0.05,0 0,0 h 1.95 c 0.028,0 0.05,-0.022 0.05,-0.05 v -4 c 0,-0.028 -0.022,-0.05 -0.05,-0.05 h -1.95 c -0.05,0 0,0.05 0,0 v -3.9 c 0,-0.05 -0.05,0 0,0 h 1.95 c 0.028,0 0.05,-0.022 0.05,-0.05 v -4 c 0,-0.028 -0.022,-0.05 -0.05,-0.05 h -1.95 c -0.05,0 0,0.05 0,0 v -3.9 c 0,-0.05 -0.05,0 0,0 h 1.95 c 0.028,0 0.05,-0.022 0.05,-0.05 v -4 c 0,-0.028 -0.022,-0.05 -0.05,-0.05 h -1.95 c -0.05,0 0,0.05 0,0 v -6.95 -2 c 0,-0.028 -0.022,-0.05 -0.05,-0.05 h -6 c -0.028,0 -0.05,0.022 -0.05,0.05 v 1.95 c 0,0.05 0.05,0 0,0 h -3.9 c -0.05,0 0,0.05 0,0 v -1.95 c 0,-0.028 -0.022,-0.05 -0.05,-0.05 h -4 c -0.028,0 -0.05,0.022 -0.05,0.05 v 1.95 c 0,0.05 0.05,0 0,0 h -3.9 c -0.05,0 0,0.05 0,0 v -1.95 c 0,-0.028 -0.022,-0.05 -0.05,-0.05 h -4 c -0.028,0 -0.05,0.022 -0.05,0.05 v 1.95 c 0,0.05 0.05,0 0,0 h -3.9 c -0.05,0 0,0.05 0,0 v -1.95 c 0,-0.028 -0.022,-0.05 -0.05,-0.05 h -4 c -0.028,0 -0.05,0.022 -0.05,0.05 v 1.95 c 0,0.05 0.05,0 0,0 h -3.9 c -0.05,0 0,0.05 0,0 v -1.95 c 0,-0.028 -0.022,-0.05 -0.05,-0.05 h -4 c -0.028,0 -0.05,0.022 -0.05,0.05 v 1.95 c 0,0.05 0.05,0 0,0 h -3.9 c -0.05,0 0,0.05 0,0 v -1.95 c 0,-0.028 -0.022,-0.05 -0.05,-0.05 h -4 c -0.028,0 -0.05,0.022 -0.05,0.05 v 1.95 c 0,0.05 0.05,0 0,0 h -3.9 c -0.05,0 0,0.05 0,0 v -1.95 c 0,-0.028 -0.022,-0.05 -0.05,-0.05 h -4 c -0.028,0 -0.05,0.022 -0.05,0.05 v 1.95 c 0,0.05 0.05,0 0,0 h -3.9 c -0.05,0 0,0.05 0,0 v -1.95 c 0,-0.028 -0.022,-0.05 -0.05,-0.05 h -4 c -0.028,0 -0.05,0.022 -0.05,0.05 v 1.95 c 0,0.05 0.05,0 0,0 h -3.9 c -0.05,0 0,0.05 0,0 v -1.95 c 0,-0.028 -0.022,-0.05 -0.05,-0.05 h -4 c -0.028,0 -0.05,0.022 -0.05,0.05 v 1.95 c 0,0.05 0.05,0 0,0 h -3.9 c -0.05,0 0,0.05 0,0 v -1.95 c 0,-0.028 -0.022,-0.05 -0.05,-0.05 h -6 c -0.028,0 -0.05,0.022 -0.05,0.05 v 2 6.95 c 0,0.05 0.05,0 0,0 h -1.95 c -0.028,0 -0.05,0.022 -0.05,0.05 v 4 c 0,0.028 0.022,0.05 0.05,0.05 h 1.95 c 0.05,0 0,-0.05 0,0 v 3.9 c 0,0.05 0.05,0 0,0 h -1.95 c -0.028,0 -0.05,0.022 -0.05,0.05 v 4 c 0,0.028 0.022,0.05 0.05,0.05 h 1.95 c 0.05,0 0,-0.05 0,0 v 3.9 c 0,0.05 0.05,0 0,0 h -1.95 c -0.028,0 -0.05,0.022 -0.05,0.05 v 4 c 0,0.028 0.022,0.05 0.05,0.05 h 1.95 c 0.05,0 0,-0.05 0,0 v 3.9 c 0,0.05 0.05,0 0,0 h -1.95 c -0.028,0 -0.05,0.022 -0.05,0.05 v 4 c 0,0.028 0.022,0.05 0.05,0.05 h 1.95 c 0.05,0 0,-0.05 0,0 v 3.9 c 0,0.05 0.05,0 0,0 h -1.95 c -0.028,0 -0.05,0.022 -0.05,0.05 v 4 c 0,0.028 0.022,0.05 0.05,0.05 h 1.95 c 0.05,0 0,-0.05 0,0 v 6.95 2 c 0,0.028 0.022,0.05 0.05,0.05 z"
       stroke="#000000"
       stroke-width="0.10"
       id="path14"
       style="stroke-width:0.02;stroke-miterlimit:4;stroke-dasharray:none" />
  </g>
  <g
     id="p-3"
     style="fill:none;stroke-width:0.02;stroke-linecap:round;stroke-linejoin:round;stroke-miterlimit:4;stroke-dasharray:none"
     transform="translate(-9.99,-9.99)">
    <path
       d="m 157.15,149.2 h 6 c 0.028,0 0.05,-0.022 0.05,-0.05 v -1.95 c 0,-0.05 -0.05,0 0,0 h 3.9 c 0.05,0 0,-0.05 0,0 v 1.95 c 0,0.028 0.022,0.05 0.05,0.05 h 4 c 0.028,0 0.05,-0.022 0.05,-0.05 v -1.95 c 0,-0.05 -0.05,0 0,0 h 3.9 c 0.05,0 0,-0.05 0,0 v 1.95 c 0,0.028 0.022,0.05 0.05,0.05 h 4 c 0.028,0 0.05,-0.022 0.05,-0.05 v -1.95 c 0,-0.05 -0.05,0 0,0 h 3.9 c 0.05,0 0,-0.05 0,0 v 1.95 c 0,0.028 0.022,0.05 0.05,0.05 h 4 c 0.028,0 0.05,-0.022 0.05,-0.05 v -1.95 c 0,-0.05 -0.05,0 0,0 h 3.9 c 0.05,0 0,-0.05 0,0 v 1.95 c 0,0.028 0.022,0.05 0.05,0.05 h 4 c 0.028,0 0.05,-0.022 0.05,-0.05 v -1.95 c 0,-0.05 -0.05,0 0,0 h 3.9 c 0.05,0 0,-0.05 0,0 v 1.95 c 0,0.028 0.022,0.05 0.05,0.05 h 4 c 0.028,0 0.05,-0.022 0.05,-0.05 v -1.95 c 0,-0.05 -0.05,0 0,0 h 3.9 c 0.05,0 0,-0.05 0,0 v 1.95 c 0,0.028 0.022,0.05 0.05,0.05 h 4 c 0.028,0 0.05,-0.022 0.05,-0.05 v -1.95 c 0,-0.05 -0.05,0 0,0 h 3.9 c 0.05,0 0,-0.05 0,0 v 1.95 c 0,0.028 0.022,0.05 0.05,0.05 h 4 c 0.028,0 0.05,-0.022 0.05,-0.05 v -1.95 c 0,-0.05 -0.05,0 0,0 h 3.9 c 0.05,0 0,-0.05 0,0 v 1.95 c 0,0.028 0.022,0.05 0.05,0.05 h 4 c 0.028,0 0.05,-0.022 0.05,-0.05 v -1.95 c 0,-0.05 -0.05,0 0,0 h 3.9 c 0.05,0 0,-0.05 0,0 v 1.95 c 0,0.028 0.022,0.05 0.05,0.05 h 6 c 0.028,0 0.05,-0.022 0.05,-0.05 v -2 -6.95 c 0,-0.05 -0.05,0 0,0 h 1.95 c 0.028,0 0.05,-0.022 0.05,-0.05 v -4 c 0,-0.028 -0.022,-0.05 -0.05,-0.05 h -1.95 c -0.05,0 0,0.05 0,0 v -3.9 c 0,-0.05 -0.05,0 0,0 h 1.95 c 0.028,0 0.05,-0.022 0.05,-0.05 v -4 c 0,-0.028 -0.022,-0.05 -0.05,-0.05 h -1.95 c -0.05,0 0,0.05 0,0 v -3.9 c 0,-0.05 -0.05,0 0,0 h 1.95 c 0.028,0 0.05,-0.022 0.05,-0.05 v -4 c 0,-0.028 -0.022,-0.05 -0.05,-0.05 h -1.95 c -0.05,0 0,0.05 0,0 v -3.9 c 0,-0.05 -0.05,0 0,0 h 1.95 c 0.028,0 0.05,-0.022 0.05,-0.05 v -4 c 0,-0.028 -0.022,-0.05 -0.05,-0.05 h -1.95 c -0.05,0 0,0.05 0,0 v -3.9 c 0,-0.05 -0.05,0 0,0 h 1.95 c 0.028,0 0.05,-0.022 0.05,-0.05 v -4 c 0,-0.028 -0.022,-0.05 -0.05,-0.05 h -1.95 c -0.05,0 0,0.05 0,0 v -6.95 -2 c 0,-0.028 -0.022,-0.05 -0.05,-0.05 h -6 c -0.028,0 -0.05,0.022 -0.05,0.05 v 1.95 c 0,0.05 0.05,0 0,0 h -3.9 c -0.05,0 0,0.05 0,0 v -1.95 c 0,-0.028 -0.022,-0.05 -0.05,-0.05 h -4 c -0.028,0 -0.05,0.022 -0.05,0.05 v 1.95 c 0,0.05 0.05,0 0,0 h -3.9 c -0.05,0 0,0.05 0,0 v -1.95 c 0,-0.028 -0.022,-0.05 -0.05,-0.05 h -4 c -0.028,0 -0.05,0.022 -0.05,0.05 v 1.95 c 0,0.05 0.05,0 0,0 h -3.9 c -0.05,0 0,0.05 0,0 v -1.95 c 0,-0.028 -0.022,-0.05 -0.05,-0.05 h -4 c -0.028,0 -0.05,0.022 -0.05,0.05 v 1.95 c 0,0.05 0.05,0 0,0 h -3.9 c -0.05,0 0,0.05 0,0 v -1.95 c 0,-0.028 -0.022,-0.05 -0.05,-0.05 h -4 c -0.028,0 -0.05,0.022 -0.05,0.05 v 1.95 c 0,0.05 0.05,0 0,0 h -3.9 c -0.05,0 0,0.05 0,0 v -1.95 c 0,-0.028 -0.022,-0.05 -0.05,-0.05 h -4 c -0.028,0 -0.05,0.022 -0.05,0.05 v 1.95 c 0,0.05 0.05,0 0,0 h -3.9 c -0.05,0 0,0.05 0,0 v -1.95 c 0,-0.028 -0.022,-0.05 -0.05,-0.05 h -4 c -0.028,0 -0.05,0.022 -0.05,0.05 v 1.95 c 0,0.05 0.05,0 0,0 h -3.9 c -0.05,0 0,0.05 0,0 v -1.95 c 0,-0.028 -0.022,-0.05 -0.05,-0.05 h -4 c -0.028,0 -0.05,0.022 -0.05,0.05 v 1.95 c 0,0.05 0.05,0 0,0 h -3.9 c -0.05,0 0,0.05 0,0 v -1.95 c 0,-0.028 -0.022,-0.05 -0.05,-0.05 h -4 c -0.028,0 -0.05,0.022 -0.05,0.05 v 1.95 c 0,0.05 0.05,0 0,0 h -3.9 c -0.05,0 0,0.05 0,0 v -1.95 c 0,-0.028 -0.022,-0.05 -0.05,-0.05 h -6 c -0.028,0 -0.05,0.022 -0.05,0.05 v 2 6.95 c 0,0.05 0.05,0 0,0 h -1.95 c -0.028,0 -0.05,0.022 -0.05,0.05 v 4 c 0,0.028 0.022,0.05 0.05,0.05 h 1.95 c 0.05,0 0,-0.05 0,0 v 3.9 c 0,0.05 0.05,0 0,0 h -1.95 c -0.028,0 -0.05,0.022 -0.05,0.05 v 4 c 0,0.028 0.022,0.05 0.05,0.05 h 1.95 c 0.05,0 0,-0.05 0,0 v 3.9 c 0,0.05 0.05,0 0,0 h -1.95 c -0.028,0 -0.05,0.022 -0.05,0.05 v 4 c 0,0.028 0.022,0.05 0.05,0.05 h 1.95 c 0.05,0 0,-0.05 0,0 v 3.9 c 0,0.05 0.05,0 0,0 h -1.95 c -0.028,0 -0.05,0.022 -0.05,0.05 v 4 c 0,0.028 0.022,0.05 0.05,0.05 h 1.95 c 0.05,0 0,-0.05 0,0 v 3.9 c 0,0.05 0.05,0 0,0 h -1.95 c -0.028,0 -0.05,0.022 -0.05,0.05 v 4 c 0,0.028 0.022,0.05 0.05,0.05 h 1.95 c 0.05,0 0,-0.05 0,0 v 6.95 2 c 0,0.028 0.022,0.05 0.05,0.05 z"
       stroke="#000000"
       stroke-width="0.10"
       id="path17"
       style="stroke-width:0.02;stroke-miterlimit:4;stroke-dasharray:none" />
  </g>
  <g
     id="p-4"
     style="fill:none;stroke-width:0.02;stroke-linecap:round;stroke-linejoin:round;stroke-miterlimit:4;stroke-dasharray:none"
     transform="translate(-9.99,-9.99)">
    <path
       d="m 12.05,149.2 h 4 c 0.028,0 0.05,-0.022 0.05,-0.05 v -1.95 c 0,-0.05 -0.05,0 0,0 H 20 c 0.05,0 0,-0.05 0,0 v 1.95 c 0,0.028 0.022,0.05 0.05,0.05 h 4 c 0.028,0 0.05,-0.022 0.05,-0.05 v -1.95 c 0,-0.05 -0.05,0 0,0 H 28 c 0.05,0 0,-0.05 0,0 v 1.95 c 0,0.028 0.022,0.05 0.05,0.05 h 4 c 0.028,0 0.05,-0.022 0.05,-0.05 v -1.95 c 0,-0.05 -0.05,0 0,0 H 36 c 0.05,0 0,-0.05 0,0 v 1.95 c 0,0.028 0.022,0.05 0.05,0.05 h 4 c 0.028,0 0.05,-0.022 0.05,-0.05 v -1.95 c 0,-0.05 -0.05,0 0,0 H 44 c 0.05,0 0,-0.05 0,0 v 1.95 c 0,0.028 0.022,0.05 0.05,0.05 h 4 c 0.028,0 0.05,-0.022 0.05,-0.05 v -1.95 c 0,-0.05 -0.05,0 0,0 H 52 c 0.05,0 0,-0.05 0,0 v 1.95 c 0,0.028 0.022,0.05 0.05,0.05 h 4 c 0.028,0 0.05,-0.022 0.05,-0.05 v -1.95 c 0,-0.05 -0.05,0 0,0 H 60 c 0.05,0 0,-0.05 0,0 v 1.95 c 0,0.028 0.022,0.05 0.05,0.05 h 4 c 0.028,0 0.05,-0.022 0.05,-0.05 v -1.95 c 0,-0.05 -0.05,0 0,0 H 68 c 0.05,0 0,-0.05 0,0 v 1.95 c 0,0.028 0.022,0.05 0.05,0.05 h 4 c 0.028,0 0.05,-0.022 0.05,-0.05 v -1.95 c 0,-0.05 -0.05,0 0,0 H 76 c 0.05,0 0,-0.05 0,0 v 1.95 c 0,0.028 0.022,0.05 0.05,0.05 h 4 c 0.028,0 0.05,-0.022 0.05,-0.05 v -1.95 c 0,-0.05 -0.05,0 0,0 H 84 c 0.05,0 0,-0.05 0,0 v 1.95 c 0,0.028 0.022,0.05 0.05,0.05 h 4 c 0.028,0 0.05,-0.022 0.05,-0.05 v -1.95 c 0,-0.05 -0.05,0 0,0 H 92 c 0.05,0 0,-0.05 0,0 v 1.95 c 0,0.028 0.022,0.05 0.05,0.05 h 4 c 0.028,0 0.05,-0.022 0.05,-0.05 v -1.95 c 0,-0.05 -0.05,0 0,0 h 3.9 c 0.05,0 0,-0.05 0,0 v 1.95 c 0,0.028 0.022,0.05 0.05,0.05 h 4 c 0.028,0 0.05,-0.022 0.05,-0.05 v -1.95 c 0,-0.05 -0.05,0 0,0 h 3.9 c 0.05,0 0,-0.05 0,0 v 1.95 c 0,0.028 0.022,0.05 0.05,0.05 h 4 c 0.028,0 0.05,-0.022 0.05,-0.05 v -1.95 c 0,-0.05 -0.05,0 0,0 h 3.9 c 0.05,0 0,-0.05 0,0 v 1.95 c 0,0.028 0.022,0.05 0.05,0.05 h 4 c 0.028,0 0.05,-0.022 0.05,-0.05 v -1.95 c 0,-0.05 -0.05,0 0,0 h 3.9 c 0.05,0 0,-0.05 0,0 v 1.95 c 0,0.028 0.022,0.05 0.05,0.05 h 4 c 0.028,0 0.05,-0.022 0.05,-0.05 v -1.95 c 0,-0.05 -0.05,0 0,0 h 3.9 c 0.05,0 0,-0.05 0,0 v 1.95 c 0,0.028 0.022,0.05 0.05,0.05 h 4 c 0.028,0 0.05,-0.022 0.05,-0.05 v -1.95 c 0,-0.05 -0.05,0 0,0 h 3.9 c 0.05,0 0,-0.05 0,0 v 1.95 c 0,0.028 0.022,0.05 0.05,0.05 h 4 c 0.028,0 0.05,-0.022 0.05,-0.05 v -1.95 c 0,-0.05 -0.05,0 0,0 h 3.9 c 0.05,0 0,-0.05 0,0 v 1.95 c 0,0.028 0.022,0.05 0.05,0.05 h 4 2 c 0.028,0 0.05,-0.022 0.05,-0.05 v -2 -7 c 0,-0.028 -0.022,-0.05 -0.05,-0.05 h -1.95 c -0.05,0 0,0.05 0,0 v -3.9 c 0,-0.05 -0.05,0 0,0 h 1.95 c 0.028,0 0.05,-0.022 0.05,-0.05 v -4 c 0,-0.028 -0.022,-0.05 -0.05,-0.05 h -1.95 c -0.05,0 0,0.05 0,0 v -3.9 c 0,-0.05 -0.05,0 0,0 h 1.95 c 0.028,0 0.05,-0.022 0.05,-0.05 v -4 c 0,-0.028 -0.022,-0.05 -0.05,-0.05 h -1.95 c -0.05,0 0,0.05 0,0 v -3.9 c 0,-0.05 -0.05,0 0,0 h 1.95 c 0.028,0 0.05,-0.022 0.05,-0.05 v -4 c 0,-0.028 -0.022,-0.05 -0.05,-0.05 h -1.95 c -0.05,0 0,0.05 0,0 v -3.9 c 0,-0.05 -0.05,0 0,0 h 1.95 c 0.028,0 0.05,-0.022 0.05,-0.05 v -4 c 0,-0.028 -0.022,-0.05 -0.05,-0.05 h -1.95 c -0.05,0 0,0.05 0,0 v -3.9 c 0,-0.05 -0.05,0 0,0 h 1.95 c 0.028,0 0.05,-0.022 0.05,-0.05 v -7 -2 c 0,-0.028 -0.022,-0.05 -0.05,-0.05 h -2 -4 c -0.028,0 -0.05,0.022 -0.05,0.05 v 1.95 c 0,0.05 0.05,0 0,0 h -3.9 c -0.05,0 0,0.05 0,0 v -1.95 c 0,-0.028 -0.022,-0.05 -0.05,-0.05 h -4 c -0.028,0 -0.05,0.022 -0.05,0.05 v 1.95 c 0,0.05 0.05,0 0,0 h -3.9 c -0.05,0 0,0.05 0,0 v -1.95 c 0,-0.028 -0.022,-0.05 -0.05,-0.05 h -4 c -0.028,0 -0.05,0.022 -0.05,0.05 v 1.95 c 0,0.05 0.05,0 0,0 h -3.9 c -0.05,0 0,0.05 0,0 v -1.95 c 0,-0.028 -0.022,-0.05 -0.05,-0.05 h -4 c -0.028,0 -0.05,0.022 -0.05,0.05 v 1.95 c 0,0.05 0.05,0 0,0 h -3.9 c -0.05,0 0,0.05 0,0 v -1.95 c 0,-0.028 -0.022,-0.05 -0.05,-0.05 h -4 c -0.028,0 -0.05,0.022 -0.05,0.05 v 1.95 c 0,0.05 0.05,0 0,0 h -3.9 c -0.05,0 0,0.05 0,0 v -1.95 c 0,-0.028 -0.022,-0.05 -0.05,-0.05 h -4 c -0.028,0 -0.05,0.022 -0.05,0.05 v 1.95 c 0,0.05 0.05,0 0,0 h -3.9 c -0.05,0 0,0.05 0,0 v -1.95 c 0,-0.028 -0.022,-0.05 -0.05,-0.05 h -4 c -0.028,0 -0.05,0.022 -0.05,0.05 v 1.95 c 0,0.05 0.05,0 0,0 h -3.9 c -0.05,0 0,0.05 0,0 v -1.95 c 0,-0.028 -0.022,-0.05 -0.05,-0.05 h -4 C 92.022,95.1 92,95.122 92,95.15 v 1.95 c 0,0.05 0.05,0 0,0 h -3.9 c -0.05,0 0,0.05 0,0 v -1.95 c 0,-0.028 -0.022,-0.05 -0.05,-0.05 h -4 C 84.022,95.1 84,95.122 84,95.15 v 1.95 c 0,0.05 0.05,0 0,0 h -3.9 c -0.05,0 0,0.05 0,0 v -1.95 c 0,-0.028 -0.022,-0.05 -0.05,-0.05 h -4 C 76.022,95.1 76,95.122 76,95.15 v 1.95 c 0,0.05 0.05,0 0,0 h -3.9 c -0.05,0 0,0.05 0,0 v -1.95 c 0,-0.028 -0.022,-0.05 -0.05,-0.05 h -4 C 68.022,95.1 68,95.122 68,95.15 v 1.95 c 0,0.05 0.05,0 0,0 h -3.9 c -0.05,0 0,0.05 0,0 v -1.95 c 0,-0.028 -0.022,-0.05 -0.05,-0.05 h -4 C 60.022,95.1 60,95.122 60,95.15 v 1.95 c 0,0.05 0.05,0 0,0 h -3.9 c -0.05,0 0,0.05 0,0 v -1.95 c 0,-0.028 -0.022,-0.05 -0.05,-0.05 h -4 C 52.022,95.1 52,95.122 52,95.15 v 1.95 c 0,0.05 0.05,0 0,0 h -3.9 c -0.05,0 0,0.05 0,0 v -1.95 c 0,-0.028 -0.022,-0.05 -0.05,-0.05 h -4 C 44.022,95.1 44,95.122 44,95.15 v 1.95 c 0,0.05 0.05,0 0,0 h -3.9 c -0.05,0 0,0.05 0,0 v -1.95 c 0,-0.028 -0.022,-0.05 -0.05,-0.05 h -4 C 36.022,95.1 36,95.122 36,95.15 v 1.95 c 0,0.05 0.05,0 0,0 h -3.9 c -0.05,0 0,0.05 0,0 v -1.95 c 0,-0.028 -0.022,-0.05 -0.05,-0.05 h -4 C 28.022,95.1 28,95.122 28,95.15 v 1.95 c 0,0.05 0.05,0 0,0 h -3.9 c -0.05,0 0,0.05 0,0 v -1.95 c 0,-0.028 -0.022,-0.05 -0.05,-0.05 h -4 C 20.022,95.1 20,95.122 20,95.15 v 1.95 c 0,0.05 0.05,0 0,0 h -3.9 c -0.05,0 0,0.05 0,0 v -1.95 c 0,-0.028 -0.022,-0.05 -0.05,-0.05 h -4 -2 C 10.022,95.1 10,95.122 10,95.15 v 2 7 c 0,0.028 0.022,0.05 0.05,0.05 H 12 c 0.05,0 0,-0.05 0,0 v 3.9 c 0,0.05 0.05,0 0,0 h -1.95 c -0.028,0 -0.05,0.022 -0.05,0.05 v 4 c 0,0.028 0.022,0.05 0.05,0.05 H 12 c 0.05,0 0,-0.05 0,0 v 3.9 c 0,0.05 0.05,0 0,0 h -1.95 c -0.028,0 -0.05,0.022 -0.05,0.05 v 4 c 0,0.028 0.022,0.05 0.05,0.05 H 12 c 0.05,0 0,-0.05 0,0 v 3.9 c 0,0.05 0.05,0 0,0 h -1.95 c -0.028,0 -0.05,0.022 -0.05,0.05 v 4 c 0,0.028 0.022,0.05 0.05,0.05 H 12 c 0.05,0 0,-0.05 0,0 v 3.9 c 0,0.05 0.05,0 0,0 h -1.95 c -0.028,0 -0.05,0.022 -0.05,0.05 v 4 c 0,0.028 0.022,0.05 0.05,0.05 H 12 c 0.05,0 0,-0.05 0,0 v 3.9 c 0,0.05 0.05,0 0,0 h -1.95 c -0.028,0 -0.05,0.022 -0.05,0.05 v 7 2 c 0,0.028 0.022,0.05 0.05,0.05 z"
       stroke="#000000"
       stroke-width="0.10"
       id="path20"
       style="stroke-width:0.02;stroke-miterlimit:4;stroke-dasharray:none" />
  </g>
  <g
     id="p-5"
     style="fill:none;stroke-width:0.02;stroke-linecap:round;stroke-linejoin:round;stroke-miterlimit:4;stroke-dasharray:none"
     transform="translate(-9.99,-9.99)">
    <path
       d="M 12.05,92.1 H 16 c 0.05,0 0,-0.05 0,0 v 1.95 c 0,0.028 0.022,0.05 0.05,0.05 h 4 c 0.028,0 0.05,-0.022 0.05,-0.05 V 92.1 c 0,-0.05 -0.05,0 0,0 H 24 c 0.05,0 0,-0.05 0,0 v 1.95 c 0,0.028 0.022,0.05 0.05,0.05 h 4 c 0.028,0 0.05,-0.022 0.05,-0.05 V 92.1 c 0,-0.05 -0.05,0 0,0 H 32 c 0.05,0 0,-0.05 0,0 v 1.95 c 0,0.028 0.022,0.05 0.05,0.05 h 4 c 0.028,0 0.05,-0.022 0.05,-0.05 V 92.1 c 0,-0.05 -0.05,0 0,0 H 40 c 0.05,0 0,-0.05 0,0 v 1.95 c 0,0.028 0.022,0.05 0.05,0.05 h 4 c 0.028,0 0.05,-0.022 0.05,-0.05 V 92.1 c 0,-0.05 -0.05,0 0,0 H 48 c 0.05,0 0,-0.05 0,0 v 1.95 c 0,0.028 0.022,0.05 0.05,0.05 h 4 c 0.028,0 0.05,-0.022 0.05,-0.05 V 92.1 c 0,-0.05 -0.05,0 0,0 H 56 c 0.05,0 0,-0.05 0,0 v 1.95 c 0,0.028 0.022,0.05 0.05,0.05 h 4 c 0.028,0 0.05,-0.022 0.05,-0.05 V 92.1 c 0,-0.05 -0.05,0 0,0 H 64 c 0.05,0 0,-0.05 0,0 v 1.95 c 0,0.028 0.022,0.05 0.05,0.05 h 4 c 0.028,0 0.05,-0.022 0.05,-0.05 V 92.1 c 0,-0.05 -0.05,0 0,0 H 72 c 0.05,0 0,-0.05 0,0 v 1.95 c 0,0.028 0.022,0.05 0.05,0.05 h 4 c 0.028,0 0.05,-0.022 0.05,-0.05 V 92.1 c 0,-0.05 -0.05,0 0,0 H 80 c 0.05,0 0,-0.05 0,0 v 1.95 c 0,0.028 0.022,0.05 0.05,0.05 h 4 c 0.028,0 0.05,-0.022 0.05,-0.05 V 92.1 c 0,-0.05 -0.05,0 0,0 H 88 c 0.05,0 0,-0.05 0,0 v 1.95 c 0,0.028 0.022,0.05 0.05,0.05 h 4 c 0.028,0 0.05,-0.022 0.05,-0.05 V 92.1 c 0,-0.05 -0.05,0 0,0 H 96 c 0.05,0 0,-0.05 0,0 v 1.95 c 0,0.028 0.022,0.05 0.05,0.05 h 4 c 0.028,0 0.05,-0.022 0.05,-0.05 V 92.1 c 0,-0.05 -0.05,0 0,0 h 3.9 c 0.05,0 0,-0.05 0,0 v 1.95 c 0,0.028 0.022,0.05 0.05,0.05 h 4 c 0.028,0 0.05,-0.022 0.05,-0.05 V 92.1 c 0,-0.05 -0.05,0 0,0 h 3.9 c 0.05,0 0,-0.05 0,0 v 1.95 c 0,0.028 0.022,0.05 0.05,0.05 h 4 c 0.028,0 0.05,-0.022 0.05,-0.05 V 92.1 c 0,-0.05 -0.05,0 0,0 h 3.9 c 0.05,0 0,-0.05 0,0 v 1.95 c 0,0.028 0.022,0.05 0.05,0.05 h 4 c 0.028,0 0.05,-0.022 0.05,-0.05 V 92.1 c 0,-0.05 -0.05,0 0,0 h 3.9 c 0.05,0 0,-0.05 0,0 v 1.95 c 0,0.028 0.022,0.05 0.05,0.05 h 4 c 0.028,0 0.05,-0.022 0.05,-0.05 V 92.1 c 0,-0.05 -0.05,0 0,0 h 3.9 c 0.05,0 0,-0.05 0,0 v 1.95 c 0,0.028 0.022,0.05 0.05,0.05 h 4 c 0.028,0 0.05,-0.022 0.05,-0.05 V 92.1 c 0,-0.05 -0.05,0 0,0 h 3.9 c 0.05,0 0,-0.05 0,0 v 1.95 c 0,0.028 0.022,0.05 0.05,0.05 h 4 c 0.028,0 0.05,-0.022 0.05,-0.05 V 92.1 c 0,-0.05 -0.05,0 0,0 h 3.95 c 0.028,0 0.05,-0.022 0.05,-0.05 V 86.1 c 0,-0.05 -0.05,0 0,0 h 1.95 c 0.028,0 0.05,-0.022 0.05,-0.05 v -4 c 0,-0.028 -0.022,-0.05 -0.05,-0.05 h -1.95 c -0.05,0 0,0.05 0,0 v -3.9 c 0,-0.05 -0.05,0 0,0 h 1.95 c 0.028,0 0.05,-0.022 0.05,-0.05 v -4 c 0,-0.028 -0.022,-0.05 -0.05,-0.05 h -1.95 c -0.05,0 0,0.05 0,0 v -3.9 c 0,-0.05 -0.05,0 0,0 h 1.95 c 0.028,0 0.05,-0.022 0.05,-0.05 v -4 c 0,-0.028 -0.022,-0.05 -0.05,-0.05 h -1.95 c -0.05,0 0,0.05 0,0 v -3.9 c 0,-0.05 -0.05,0 0,0 h 1.95 c 0.028,0 0.05,-0.022 0.05,-0.05 v -4 c 0,-0.028 -0.022,-0.05 -0.05,-0.05 h -1.95 c -0.05,0 0,0.05 0,0 v -3.9 c 0,-0.05 -0.05,0 0,0 h 1.95 c 0.028,0 0.05,-0.022 0.05,-0.05 v -4 c 0,-0.028 -0.022,-0.05 -0.05,-0.05 h -1.95 c -0.05,0 0,0.05 0,0 v -3.9 c 0,-0.05 -0.05,0 0,0 h 1.95 c 0.028,0 0.05,-0.022 0.05,-0.05 v -4 c 0,-0.028 -0.022,-0.05 -0.05,-0.05 h -1.95 c -0.05,0 0,0.05 0,0 v -3.9 c 0,-0.05 -0.05,0 0,0 h 1.95 c 0.028,0 0.05,-0.022 0.05,-0.05 v -4 c 0,-0.028 -0.022,-0.05 -0.05,-0.05 h -1.95 c -0.05,0 0,0.05 0,0 v -3.9 c 0,-0.05 -0.05,0 0,0 h 1.95 c 0.028,0 0.05,-0.022 0.05,-0.05 v -4 c 0,-0.028 -0.022,-0.05 -0.05,-0.05 h -1.95 c -0.05,0 0,0.05 0,0 v -3.9 c 0,-0.05 -0.05,0 0,0 h 1.95 c 0.028,0 0.05,-0.022 0.05,-0.05 v -4 c 0,-0.028 -0.022,-0.05 -0.05,-0.05 h -1.95 c -0.05,0 0,0.05 0,0 v -5.95 c 0,-0.028 -0.022,-0.05 -0.05,-0.05 h -3.95 c -0.05,0 0,0.05 0,0 v -1.95 c 0,-0.028 -0.022,-0.05 -0.05,-0.05 h -4 C 144.022,10 144,10.022 144,10.05 V 12 c 0,0.05 0.05,0 0,0 h -3.9 c -0.05,0 0,0.05 0,0 v -1.95 c 0,-0.028 -0.022,-0.05 -0.05,-0.05 h -4 C 136.022,10 136,10.022 136,10.05 V 12 c 0,0.05 0.05,0 0,0 h -3.9 c -0.05,0 0,0.05 0,0 v -1.95 c 0,-0.028 -0.022,-0.05 -0.05,-0.05 h -4 C 128.022,10 128,10.022 128,10.05 V 12 c 0,0.05 0.05,0 0,0 h -3.9 c -0.05,0 0,0.05 0,0 v -1.95 c 0,-0.028 -0.022,-0.05 -0.05,-0.05 h -4 C 120.022,10 120,10.022 120,10.05 V 12 c 0,0.05 0.05,0 0,0 h -3.9 c -0.05,0 0,0.05 0,0 v -1.95 c 0,-0.028 -0.022,-0.05 -0.05,-0.05 h -4 C 112.022,10 112,10.022 112,10.05 V 12 c 0,0.05 0.05,0 0,0 h -3.9 c -0.05,0 0,0.05 0,0 v -1.95 c 0,-0.028 -0.022,-0.05 -0.05,-0.05 h -4 C 104.022,10 104,10.022 104,10.05 V 12 c 0,0.05 0.05,0 0,0 h -3.9 c -0.05,0 0,0.05 0,0 v -1.95 c 0,-0.028 -0.022,-0.05 -0.05,-0.05 h -4 C 96.022,10 96,10.022 96,10.05 V 12 c 0,0.05 0.05,0 0,0 h -3.9 c -0.05,0 0,0.05 0,0 V 10.05 C 92.1,10.022 92.078,10 92.05,10 h -4 C 88.022,10 88,10.022 88,10.05 V 12 c 0,0.05 0.05,0 0,0 h -3.9 c -0.05,0 0,0.05 0,0 V 10.05 C 84.1,10.022 84.078,10 84.05,10 h -4 C 80.022,10 80,10.022 80,10.05 V 12 c 0,0.05 0.05,0 0,0 h -3.9 c -0.05,0 0,0.05 0,0 V 10.05 C 76.1,10.022 76.078,10 76.05,10 h -4 C 72.022,10 72,10.022 72,10.05 V 12 c 0,0.05 0.05,0 0,0 h -3.9 c -0.05,0 0,0.05 0,0 V 10.05 C 68.1,10.022 68.078,10 68.05,10 h -4 C 64.022,10 64,10.022 64,10.05 V 12 c 0,0.05 0.05,0 0,0 h -3.9 c -0.05,0 0,0.05 0,0 V 10.05 C 60.1,10.022 60.078,10 60.05,10 h -4 C 56.022,10 56,10.022 56,10.05 V 12 c 0,0.05 0.05,0 0,0 h -3.9 c -0.05,0 0,0.05 0,0 V 10.05 C 52.1,10.022 52.078,10 52.05,10 h -4 C 48.022,10 48,10.022 48,10.05 V 12 c 0,0.05 0.05,0 0,0 h -3.9 c -0.05,0 0,0.05 0,0 V 10.05 C 44.1,10.022 44.078,10 44.05,10 h -4 C 40.022,10 40,10.022 40,10.05 V 12 c 0,0.05 0.05,0 0,0 h -3.9 c -0.05,0 0,0.05 0,0 V 10.05 C 36.1,10.022 36.078,10 36.05,10 h -4 C 32.022,10 32,10.022 32,10.05 V 12 c 0,0.05 0.05,0 0,0 h -3.9 c -0.05,0 0,0.05 0,0 V 10.05 C 28.1,10.022 28.078,10 28.05,10 h -4 C 24.022,10 24,10.022 24,10.05 V 12 c 0,0.05 0.05,0 0,0 h -3.9 c -0.05,0 0,0.05 0,0 V 10.05 C 20.1,10.022 20.078,10 20.05,10 h -4 C 16.022,10 16,10.022 16,10.05 V 12 c 0,0.05 0.05,0 0,0 H 12.05 C 12.022,12 12,12.022 12,12.05 V 18 c 0,0.05 0.05,0 0,0 H 10.05 C 10.022,18 10,18.022 10,18.05 v 4 c 0,0.028 0.022,0.05 0.05,0.05 H 12 c 0.05,0 0,-0.05 0,0 V 26 c 0,0.05 0.05,0 0,0 H 10.05 C 10.022,26 10,26.022 10,26.05 v 4 c 0,0.028 0.022,0.05 0.05,0.05 H 12 c 0.05,0 0,-0.05 0,0 V 34 c 0,0.05 0.05,0 0,0 H 10.05 C 10.022,34 10,34.022 10,34.05 v 4 c 0,0.028 0.022,0.05 0.05,0.05 H 12 c 0.05,0 0,-0.05 0,0 V 42 c 0,0.05 0.05,0 0,0 H 10.05 C 10.022,42 10,42.022 10,42.05 v 4 c 0,0.028 0.022,0.05 0.05,0.05 H 12 c 0.05,0 0,-0.05 0,0 V 50 c 0,0.05 0.05,0 0,0 H 10.05 C 10.022,50 10,50.022 10,50.05 v 4 c 0,0.028 0.022,0.05 0.05,0.05 H 12 c 0.05,0 0,-0.05 0,0 V 58 c 0,0.05 0.05,0 0,0 H 10.05 C 10.022,58 10,58.022 10,58.05 v 4 c 0,0.028 0.022,0.05 0.05,0.05 H 12 c 0.05,0 0,-0.05 0,0 V 66 c 0,0.05 0.05,0 0,0 H 10.05 C 10.022,66 10,66.022 10,66.05 v 4 c 0,0.028 0.022,0.05 0.05,0.05 H 12 c 0.05,0 0,-0.05 0,0 V 74 c 0,0.05 0.05,0 0,0 H 10.05 C 10.022,74 10,74.022 10,74.05 v 4 c 0,0.028 0.022,0.05 0.05,0.05 H 12 c 0.05,0 0,-0.05 0,0 V 82 c 0,0.05 0.05,0 0,0 H 10.05 C 10.022,82 10,82.022 10,82.05 v 4 c 0,0.028 0.022,0.05 0.05,0.05 H 12 c 0.05,0 0,-0.05 0,0 v 5.95 c 0,0.028 0.022,0.05 0.05,0.05 z"
       stroke="#000000"
       stroke-width="0.10"
       id="path23"
       style="stroke-width:0.02;stroke-miterlimit:4;stroke-dasharray:none" />
  </g>
  <g
     id="p-6"
     style="fill:none;stroke-width:0.02;stroke-linecap:round;stroke-linejoin:round;stroke-miterlimit:4;stroke-dasharray:none"
     transform="translate(-9.99,-9.99)">
    <path
       d="m 157.15,92.1 h 3.95 c 0.05,0 0,-0.05 0,0 v 1.95 c 0,0.028 0.022,0.05 0.05,0.05 h 4 c 0.028,0 0.05,-0.022 0.05,-0.05 V 92.1 c 0,-0.05 -0.05,0 0,0 h 3.9 c 0.05,0 0,-0.05 0,0 v 1.95 c 0,0.028 0.022,0.05 0.05,0.05 h 4 c 0.028,0 0.05,-0.022 0.05,-0.05 V 92.1 c 0,-0.05 -0.05,0 0,0 h 3.9 c 0.05,0 0,-0.05 0,0 v 1.95 c 0,0.028 0.022,0.05 0.05,0.05 h 4 c 0.028,0 0.05,-0.022 0.05,-0.05 V 92.1 c 0,-0.05 -0.05,0 0,0 h 3.9 c 0.05,0 0,-0.05 0,0 v 1.95 c 0,0.028 0.022,0.05 0.05,0.05 h 4 c 0.028,0 0.05,-0.022 0.05,-0.05 V 92.1 c 0,-0.05 -0.05,0 0,0 h 3.9 c 0.05,0 0,-0.05 0,0 v 1.95 c 0,0.028 0.022,0.05 0.05,0.05 h 4 c 0.028,0 0.05,-0.022 0.05,-0.05 V 92.1 c 0,-0.05 -0.05,0 0,0 h 3.9 c 0.05,0 0,-0.05 0,0 v 1.95 c 0,0.028 0.022,0.05 0.05,0.05 h 4 c 0.028,0 0.05,-0.022 0.05,-0.05 V 92.1 c 0,-0.05 -0.05,0 0,0 h 3.9 c 0.05,0 0,-0.05 0,0 v 1.95 c 0,0.028 0.022,0.05 0.05,0.05 h 4 c 0.028,0 0.05,-0.022 0.05,-0.05 V 92.1 c 0,-0.05 -0.05,0 0,0 h 3.9 c 0.05,0 0,-0.05 0,0 v 1.95 c 0,0.028 0.022,0.05 0.05,0.05 h 4 c 0.028,0 0.05,-0.022 0.05,-0.05 V 92.1 c 0,-0.05 -0.05,0 0,0 h 3.9 c 0.05,0 0,-0.05 0,0 v 1.95 c 0,0.028 0.022,0.05 0.05,0.05 h 4 c 0.028,0 0.05,-0.022 0.05,-0.05 V 92.1 c 0,-0.05 -0.05,0 0,0 h 3.9 c 0.05,0 0,-0.05 0,0 v 1.95 c 0,0.028 0.022,0.05 0.05,0.05 h 4 c 0.028,0 0.05,-0.022 0.05,-0.05 V 92.1 c 0,-0.05 -0.05,0 0,0 h 3.9 c 0.05,0 0,-0.05 0,0 v 1.95 c 0,0.028 0.022,0.05 0.05,0.05 h 4 c 0.028,0 0.05,-0.022 0.05,-0.05 V 92.1 c 0,-0.05 -0.05,0 0,0 h 3.9 c 0.05,0 0,-0.05 0,0 v 1.95 c 0,0.028 0.022,0.05 0.05,0.05 h 4 c 0.028,0 0.05,-0.022 0.05,-0.05 V 92.1 c 0,-0.05 -0.05,0 0,0 h 3.9 c 0.05,0 0,-0.05 0,0 v 1.95 c 0,0.028 0.022,0.05 0.05,0.05 h 4 c 0.028,0 0.05,-0.022 0.05,-0.05 V 92.1 c 0,-0.05 -0.05,0 0,0 h 3.9 c 0.05,0 0,-0.05 0,0 v 1.95 c 0,0.028 0.022,0.05 0.05,0.05 h 4 c 0.028,0 0.05,-0.022 0.05,-0.05 V 92.1 c 0,-0.05 -0.05,0 0,0 h 3.9 c 0.05,0 0,-0.05 0,0 v 1.95 c 0,0.028 0.022,0.05 0.05,0.05 h 4 c 0.028,0 0.05,-0.022 0.05,-0.05 V 92.1 c 0,-0.05 -0.05,0 0,0 h 3.9 c 0.05,0 0,-0.05 0,0 v 1.95 c 0,0.028 0.022,0.05 0.05,0.05 h 4 c 0.028,0 0.05,-0.022 0.05,-0.05 V 92.1 c 0,-0.05 -0.05,0 0,0 h 3.9 c 0.05,0 0,-0.05 0,0 v 1.95 c 0,0.028 0.022,0.05 0.05,0.05 h 4 c 0.028,0 0.05,-0.022 0.05,-0.05 V 92.1 c 0,-0.05 -0.05,0 0,0 h 3.95 c 0.028,0 0.05,-0.022 0.05,-0.05 V 86.1 c 0,-0.05 -0.05,0 0,0 h 1.95 c 0.028,0 0.05,-0.022 0.05,-0.05 v -4 c 0,-0.028 -0.022,-0.05 -0.05,-0.05 h -1.95 c -0.05,0 0,0.05 0,0 v -3.9 c 0,-0.05 -0.05,0 0,0 h 1.95 c 0.028,0 0.05,-0.022 0.05,-0.05 v -4 c 0,-0.028 -0.022,-0.05 -0.05,-0.05 h -1.95 c -0.05,0 0,0.05 0,0 v -3.9 c 0,-0.05 -0.05,0 0,0 h 1.95 c 0.028,0 0.05,-0.022 0.05,-0.05 v -4 c 0,-0.028 -0.022,-0.05 -0.05,-0.05 h -1.95 c -0.05,0 0,0.05 0,0 v -3.9 c 0,-0.05 -0.05,0 0,0 h 1.95 c 0.028,0 0.05,-0.022 0.05,-0.05 v -4 c 0,-0.028 -0.022,-0.05 -0.05,-0.05 h -1.95 c -0.05,0 0,0.05 0,0 v -3.9 c 0,-0.05 -0.05,0 0,0 h 1.95 c 0.028,0 0.05,-0.022 0.05,-0.05 v -4 c 0,-0.028 -0.022,-0.05 -0.05,-0.05 h -1.95 c -0.05,0 0,0.05 0,0 v -3.9 c 0,-0.05 -0.05,0 0,0 h 1.95 c 0.028,0 0.05,-0.022 0.05,-0.05 v -4 c 0,-0.028 -0.022,-0.05 -0.05,-0.05 h -1.95 c -0.05,0 0,0.05 0,0 v -3.9 c 0,-0.05 -0.05,0 0,0 h 1.95 c 0.028,0 0.05,-0.022 0.05,-0.05 v -4 c 0,-0.028 -0.022,-0.05 -0.05,-0.05 h -1.95 c -0.05,0 0,0.05 0,0 v -3.9 c 0,-0.05 -0.05,0 0,0 h 1.95 c 0.028,0 0.05,-0.022 0.05,-0.05 v -4 c 0,-0.028 -0.022,-0.05 -0.05,-0.05 h -1.95 c -0.05,0 0,0.05 0,0 v -3.9 c 0,-0.05 -0.05,0 0,0 h 1.95 c 0.028,0 0.05,-0.022 0.05,-0.05 v -4 c 0,-0.028 -0.022,-0.05 -0.05,-0.05 h -1.95 c -0.05,0 0,0.05 0,0 v -5.95 c 0,-0.028 -0.022,-0.05 -0.05,-0.05 h -3.95 c -0.05,0 0,0.05 0,0 v -1.95 c 0,-0.028 -0.022,-0.05 -0.05,-0.05 h -4 c -0.028,0 -0.05,0.022 -0.05,0.05 V 12 c 0,0.05 0.05,0 0,0 h -3.9 c -0.05,0 0,0.05 0,0 v -1.95 c 0,-0.028 -0.022,-0.05 -0.05,-0.05 h -4 c -0.028,0 -0.05,0.022 -0.05,0.05 V 12 c 0,0.05 0.05,0 0,0 h -3.9 c -0.05,0 0,0.05 0,0 v -1.95 c 0,-0.028 -0.022,-0.05 -0.05,-0.05 h -4 c -0.028,0 -0.05,0.022 -0.05,0.05 V 12 c 0,0.05 0.05,0 0,0 h -3.9 c -0.05,0 0,0.05 0,0 v -1.95 c 0,-0.028 -0.022,-0.05 -0.05,-0.05 h -4 c -0.028,0 -0.05,0.022 -0.05,0.05 V 12 c 0,0.05 0.05,0 0,0 h -3.9 c -0.05,0 0,0.05 0,0 v -1.95 c 0,-0.028 -0.022,-0.05 -0.05,-0.05 h -4 c -0.028,0 -0.05,0.022 -0.05,0.05 V 12 c 0,0.05 0.05,0 0,0 h -3.9 c -0.05,0 0,0.05 0,0 v -1.95 c 0,-0.028 -0.022,-0.05 -0.05,-0.05 h -4 c -0.028,0 -0.05,0.022 -0.05,0.05 V 12 c 0,0.05 0.05,0 0,0 h -3.9 c -0.05,0 0,0.05 0,0 v -1.95 c 0,-0.028 -0.022,-0.05 -0.05,-0.05 h -4 c -0.028,0 -0.05,0.022 -0.05,0.05 V 12 c 0,0.05 0.05,0 0,0 h -3.9 c -0.05,0 0,0.05 0,0 v -1.95 c 0,-0.028 -0.022,-0.05 -0.05,-0.05 h -4 c -0.028,0 -0.05,0.022 -0.05,0.05 V 12 c 0,0.05 0.05,0 0,0 h -3.9 c -0.05,0 0,0.05 0,0 v -1.95 c 0,-0.028 -0.022,-0.05 -0.05,-0.05 h -4 c -0.028,0 -0.05,0.022 -0.05,0.05 V 12 c 0,0.05 0.05,0 0,0 h -3.9 c -0.05,0 0,0.05 0,0 v -1.95 c 0,-0.028 -0.022,-0.05 -0.05,-0.05 h -4 c -0.028,0 -0.05,0.022 -0.05,0.05 V 12 c 0,0.05 0.05,0 0,0 h -3.9 c -0.05,0 0,0.05 0,0 v -1.95 c 0,-0.028 -0.022,-0.05 -0.05,-0.05 h -4 c -0.028,0 -0.05,0.022 -0.05,0.05 V 12 c 0,0.05 0.05,0 0,0 h -3.9 c -0.05,0 0,0.05 0,0 v -1.95 c 0,-0.028 -0.022,-0.05 -0.05,-0.05 h -4 c -0.028,0 -0.05,0.022 -0.05,0.05 V 12 c 0,0.05 0.05,0 0,0 h -3.9 c -0.05,0 0,0.05 0,0 v -1.95 c 0,-0.028 -0.022,-0.05 -0.05,-0.05 h -4 c -0.028,0 -0.05,0.022 -0.05,0.05 V 12 c 0,0.05 0.05,0 0,0 h -3.9 c -0.05,0 0,0.05 0,0 v -1.95 c 0,-0.028 -0.022,-0.05 -0.05,-0.05 h -4 c -0.028,0 -0.05,0.022 -0.05,0.05 V 12 c 0,0.05 0.05,0 0,0 h -3.9 c -0.05,0 0,0.05 0,0 v -1.95 c 0,-0.028 -0.022,-0.05 -0.05,-0.05 h -4 c -0.028,0 -0.05,0.022 -0.05,0.05 V 12 c 0,0.05 0.05,0 0,0 h -3.9 c -0.05,0 0,0.05 0,0 v -1.95 c 0,-0.028 -0.022,-0.05 -0.05,-0.05 h -4 c -0.028,0 -0.05,0.022 -0.05,0.05 V 12 c 0,0.05 0.05,0 0,0 h -3.9 c -0.05,0 0,0.05 0,0 v -1.95 c 0,-0.028 -0.022,-0.05 -0.05,-0.05 h -4 c -0.028,0 -0.05,0.022 -0.05,0.05 V 12 c 0,0.05 0.05,0 0,0 h -3.95 c -0.028,0 -0.05,0.022 -0.05,0.05 V 18 c 0,0.05 0.05,0 0,0 h -1.95 c -0.028,0 -0.05,0.022 -0.05,0.05 v 4 c 0,0.028 0.022,0.05 0.05,0.05 h 1.95 c 0.05,0 0,-0.05 0,0 V 26 c 0,0.05 0.05,0 0,0 h -1.95 c -0.028,0 -0.05,0.022 -0.05,0.05 v 4 c 0,0.028 0.022,0.05 0.05,0.05 h 1.95 c 0.05,0 0,-0.05 0,0 V 34 c 0,0.05 0.05,0 0,0 h -1.95 c -0.028,0 -0.05,0.022 -0.05,0.05 v 4 c 0,0.028 0.022,0.05 0.05,0.05 h 1.95 c 0.05,0 0,-0.05 0,0 V 42 c 0,0.05 0.05,0 0,0 h -1.95 c -0.028,0 -0.05,0.022 -0.05,0.05 v 4 c 0,0.028 0.022,0.05 0.05,0.05 h 1.95 c 0.05,0 0,-0.05 0,0 V 50 c 0,0.05 0.05,0 0,0 h -1.95 c -0.028,0 -0.05,0.022 -0.05,0.05 v 4 c 0,0.028 0.022,0.05 0.05,0.05 h 1.95 c 0.05,0 0,-0.05 0,0 V 58 c 0,0.05 0.05,0 0,0 h -1.95 c -0.028,0 -0.05,0.022 -0.05,0.05 v 4 c 0,0.028 0.022,0.05 0.05,0.05 h 1.95 c 0.05,0 0,-0.05 0,0 V 66 c 0,0.05 0.05,0 0,0 h -1.95 c -0.028,0 -0.05,0.022 -0.05,0.05 v 4 c 0,0.028 0.022,0.05 0.05,0.05 h 1.95 c 0.05,0 0,-0.05 0,0 V 74 c 0,0.05 0.05,0 0,0 h -1.95 c -0.028,0 -0.05,0.022 -0.05,0.05 v 4 c 0,0.028 0.022,0.05 0.05,0.05 h 1.95 c 0.05,0 0,-0.05 0,0 V 82 c 0,0.05 0.05,0 0,0 h -1.95 c -0.028,0 -0.05,0.022 -0.05,0.05 v 4 c 0,0.028 0.022,0.05 0.05,0.05 h 1.95 c 0.05,0 0,-0.05 0,0 v 5.95 c 0,0.028 0.022,0.05 0.05,0.05 z"
       stroke="#000000"
       stroke-width="0.10"
       id="path26"
       style="stroke-width:0.02;stroke-miterlimit:4;stroke-dasharray:none" />
  </g>
  <rect
     style="fill:none;fill-opacity:1;stroke:#000000;stroke-width:0.02;stroke-miterlimit:4;stroke-dasharray:none;stroke-opacity:1;paint-order:stroke fill markers"
     id="rect877"
     width="71.787674"
     height="28.787682"
     x="36.174488"
     y="8.6675262" />
  <rect
     style="fill:none;fill-opacity:1;stroke:#000000;stroke-width:0.0200122;stroke-miterlimit:4;stroke-dasharray:none;stroke-opacity:1;paint-order:stroke fill markers"
     id="rect877-8"
     width="69.399994"
     height="11.899997"
     x="37.350002"
     y="58.299999" />
  <circle
     style="fill:none;fill-opacity:0.00392157;fill-rule:nonzero;stroke:#000000;stroke-width:0.02;stroke-miterlimit:4;stroke-dasharray:none"
     id="path844"
     cx="42.05056"
     cy="54.292564"
     r="1.9513367" />
  <circle
     style="fill:none;fill-opacity:0.00392157;fill-rule:nonzero;stroke:#000000;stroke-width:0.02;stroke-miterlimit:4;stroke-dasharray:none"
     id="path844-5"
     cx="62.050797"
     cy="54.309101"
     r="1.9513367" />
  <circle
     style="fill:none;fill-opacity:0.00392157;fill-rule:nonzero;stroke:#000000;stroke-width:0.02;stroke-miterlimit:4;stroke-dasharray:none"
     id="path844-5-0"
     cx="82.050781"
     cy="54.30497"
     r="1.9513367" />
  <circle
     style="fill:none;fill-opacity:0.00392157;fill-rule:nonzero;stroke:#000000;stroke-width:0.02;stroke-miterlimit:4;stroke-dasharray:none"
     id="path844-5-0-0"
     cx="102.05077"
     cy="54.296703"
     r="1.9513367" />
  <rect
     style="fill:none;fill-opacity:0.00392157;fill-rule:nonzero;stroke:#000000;stroke-width:0.0297111;stroke-miterlimit:4;stroke-dasharray:none"
     id="rect941"
     width="11.970288"
     height="10.970288"
     x="193.1297"
     y="124.22971" />
</svg>
